<svg xmlns="http://www.w3.org/2000/svg" shape-rendering="geometricPrecision" text-rendering="geometricPrecision" image-rendering="optimizeQuality" fill-rule="evenodd" clip-rule="evenodd" viewBox="0 0 479 511.61"><path d="M227.536 208.787h-15.967c-6.947 0-13.256-2.836-17.825-7.405-4.568-4.569-7.404-10.879-7.404-17.824v-9.442H71.625v228.759h70.525v-18.659h190.314v18.659h73.132V174.116H291.944v9.712c0 6.873-2.806 13.115-7.325 17.634-4.518 4.519-10.761 7.325-17.633 7.325h-16.238v32.386a7.16 7.16 0 01-2.104 5.07 7.158 7.158 0 01-5.071 2.105h-8.862a7.155 7.155 0 01-5.07-2.104 7.157 7.157 0 01-2.105-5.071v-32.386zm-15.967-8.521h4.885l-.004-.149v-87.895h-21.589v71.336c0 9.188 7.519 16.708 16.708 16.708zm13.4 0h28.346l-.003-.149v-87.895h-28.34v87.895l-.003.149zm36.861 0h5.156c9.041 0 16.437-7.397 16.437-16.438v-71.606h-21.589v87.895l-.004.149zM469.256 9.744c6.012 6.012 9.744 14.313 9.744 23.45v68.266H0V33.194c0-9.137 3.732-17.438 9.744-23.45C15.756 3.732 24.057 0 33.195 0h412.61c9.138 0 17.439 3.732 23.451 9.744zM479 114.241v288.634h-60.622V114.241H479zm0 301.415v40.772c0 9.138-3.732 17.439-9.744 23.451-6.012 6.012-14.313 9.744-23.451 9.744h-.392v21.987h-38.668l-25.336-21.987H97.591L72.254 511.61H33.586v-21.987h-.391c-9.138 0-17.439-3.732-23.451-9.744C3.732 473.867 0 465.566 0 456.428v-40.772h479zM0 402.875V114.241h58.844v288.634H0zm186.34-244.812v-43.822H71.625v43.822H186.34zm105.604-43.822v43.822h113.652v-43.822H291.944zM186.308 284.612h101.998a2.536 2.536 0 012.528 2.529v71.354a2.536 2.536 0 01-2.528 2.529H186.308a2.536 2.536 0 01-2.529-2.529v-71.354a2.536 2.536 0 012.529-2.529zm53.182-260.53c7.828 0 14.916 3.174 20.046 8.304 5.13 5.13 8.304 12.218 8.304 20.046 0 7.827-3.174 14.915-8.304 20.046-5.13 5.13-12.218 8.304-20.046 8.304-7.827 0-14.915-3.174-20.046-8.304-5.13-5.131-8.304-12.219-8.304-20.046 0-7.828 3.174-14.916 8.304-20.046 5.131-5.13 12.219-8.304 20.046-8.304zm136.24 6.044a22.238 22.238 0 0115.773 6.534 22.237 22.237 0 016.533 15.772 22.237 22.237 0 01-6.533 15.772 22.238 22.238 0 01-15.773 6.534 22.235 22.235 0 01-15.772-6.534 22.233 22.233 0 01-6.534-15.772 22.233 22.233 0 016.534-15.772 22.235 22.235 0 0115.772-6.534zm-272.461 0a22.238 22.238 0 0115.773 6.534 22.237 22.237 0 016.533 15.772 22.237 22.237 0 01-6.533 15.772 22.238 22.238 0 01-15.773 6.534 22.237 22.237 0 01-15.772-6.534 22.237 22.237 0 01-6.533-15.772 22.237 22.237 0 016.533-15.772 22.237 22.237 0 0115.772-6.534z"/></svg>