<?xml version="1.0" standalone="no"?>
<!DOCTYPE svg PUBLIC "-//W3C//DTD SVG 20010904//EN"
 "http://www.w3.org/TR/2001/REC-SVG-20010904/DTD/svg10.dtd">
<svg version="1.0" xmlns="http://www.w3.org/2000/svg"
 width="979.441707pt" height="601.617154pt" viewBox="0 0 979.441707 601.617154"
 preserveAspectRatio="xMidYMid meet">
<metadata>
Created by potrace 1.12, written by Peter Selinger 2001-2015
</metadata>
<g transform="translate(-98.555480,717.869178) scale(0.100000,-0.100000)"
fill="#000000" stroke="none">
<path d="M3255 7173 c-233 -21 -482 -113 -666 -246 -243 -174 -431 -410 -605
-757 -216 -432 -366 -904 -649 -2040 -53 -212 -127 -506 -165 -655 -185 -724
-184 -717 -184 -1050 -1 -263 8 -336 56 -500 86 -292 276 -538 506 -654 320
-161 720 -141 1027 51 80 51 212 166 287 251 260 295 665 951 975 1579 l58
117 1963 1 1963 0 45 -97 c167 -355 469 -874 723 -1243 118 -172 142 -203 278
-361 165 -192 359 -320 580 -381 68 -19 104 -22 278 -22 l200 -1 109 38 c143
49 244 103 343 182 99 79 158 146 222 254 128 212 181 430 181 741 0 241 -40
509 -114 765 -49 170 -123 447 -205 760 -77 297 -166 640 -241 925 -144 549
-319 1031 -497 1370 -315 600 -699 907 -1213 970 -78 9 -5151 12 -5255 3z
m5003 -702 c112 -58 172 -149 180 -272 6 -108 -14 -173 -79 -243 -69 -76 -140
-110 -233 -110 -94 -1 -153 17 -212 66 -96 79 -130 158 -122 285 6 95 30 147
99 214 70 68 132 90 239 86 64 -3 96 -9 128 -26z m-4523 -70 c46 -21 85 -58
118 -110 21 -35 22 -46 27 -366 l5 -330 330 -5 330 -5 48 -28 c162 -95 162
-319 0 -414 l-48 -28 -330 -5 -330 -5 -3 -315 c-3 -360 -5 -373 -78 -440 -56
-52 -99 -70 -163 -70 -87 0 -165 44 -209 119 l-27 46 -5 330 -5 330 -335 5
c-369 6 -363 4 -429 72 -98 99 -97 245 2 339 67 65 60 64 430 67 l337 3 0 325
c0 354 1 360 59 426 66 75 185 101 276 59z m3691 -756 c67 -30 124 -87 159
-160 24 -49 29 -71 29 -139 1 -69 -3 -89 -27 -137 -31 -63 -93 -126 -159 -160
-35 -19 -59 -23 -133 -24 -79 0 -97 4 -147 28 -186 91 -241 333 -113 501 37
48 118 98 184 113 71 15 141 8 207 -22z m1605 14 c84 -21 174 -111 207 -208
16 -47 15 -158 -3 -217 -18 -62 -86 -141 -154 -178 -38 -20 -71 -29 -124 -33
-105 -8 -170 13 -241 78 -91 83 -129 193 -105 307 15 76 39 120 91 170 90 88
196 114 329 81z m-783 -839 c73 -32 153 -119 177 -195 39 -125 3 -269 -86
-350 -73 -66 -113 -80 -224 -80 -89 0 -105 3 -150 27 -69 36 -109 79 -147 156
-29 58 -33 75 -32 142 2 83 16 127 65 195 87 122 255 166 397 105z"/>
</g>
</svg>
