<?xml version="1.0" encoding="UTF-8"?>
<!-- Generated by Pixelmator Pro 3.7 -->
<svg width="400" height="400" viewBox="0 0 400 400" xmlns="http://www.w3.org/2000/svg">
    <path id="Traado" fill="#000000" stroke="none" d="M 197.368408 6 L 202.631592 6 C 202.631592 6 400 6 400 216.526306 C 400 311.263153 378.947388 342.842102 368.421082 353.368408 C 368.421082 353.368408 336.842102 374.421051 347.367371 345.473694 C 347.367371 321.117889 357.894714 269.157898 357.894714 269.157898 C 357.894714 269.157898 368.421082 269.157898 368.421082 216.526306 C 368.421082 153.368408 326.315796 42.842102 210.526306 42.842102 L 189.473694 42.842102 C 73.684204 42.842102 31.578949 153.368408 31.578949 216.526306 C 31.578949 269.157898 42.10527 269.157898 42.10527 269.157898 C 42.10527 269.157898 52.632629 321.117889 52.632629 345.473694 C 63.157898 374.421051 31.578949 353.368408 31.578949 353.368408 C 21.052628 342.842102 0 311.263153 0 216.526306 C 0 6 197.368408 6 197.368408 6 Z M 79.508423 218.268433 C 96.778961 215.841034 112.747375 227.874725 115.174744 245.145264 L 131.289459 359.807343 C 133.716858 377.077881 121.684204 393.046326 104.412628 395.473694 C 87.14209 397.901031 65.910522 385.868439 63.483154 368.596863 L 47.368423 253.934723 C 44.941055 236.664215 62.237885 220.69577 79.508423 218.268433 Z M 320.491577 218.268433 C 337.762085 220.69577 355.05896 236.664215 352.631592 253.934723 L 336.516846 368.596863 C 334.089478 385.868439 312.85791 397.901031 295.587372 395.473694 C 278.315765 393.046326 266.283173 377.077881 268.710541 359.807343 L 284.825256 245.145264 C 287.252655 227.874725 303.221039 215.841034 320.491577 218.268433 Z"/>
</svg>
