<?xml version="1.0" standalone="no"?>
<!DOCTYPE svg PUBLIC "-//W3C//DTD SVG 20010904//EN"
 "http://www.w3.org/TR/2001/REC-SVG-20010904/DTD/svg10.dtd">
<svg version="1.0" xmlns="http://www.w3.org/2000/svg"
 width="779.925436pt" height="474.922008pt" viewBox="0 0 779.925436 474.922008"
 preserveAspectRatio="xMidYMid meet">
<metadata>
Created by potrace 1.12, written by Peter Selinger 2001-2015
</metadata>
<g transform="translate(-34.016353,538.894978) scale(0.100000,-0.100000)"
fill="#000000" stroke="none">
<path d="M4970 5375 c-99 -30 -524 -148 -665 -185 -38 -10 -119 -33 -180 -50
-110 -31 -186 -52 -470 -130 -82 -23 -190 -53 -240 -66 -113 -32 -192 -54
-372 -103 -175 -48 -221 -71 -293 -141 -92 -91 -140 -198 -140 -315 0 -99 27
-169 154 -400 35 -63 231 -357 351 -525 252 -353 415 -586 415 -595 0 -7 -156
-83 -782 -382 -65 -31 -115 -60 -112 -65 3 -4 26 -8 52 -8 58 0 322 -34 434
-55 360 -68 830 -201 1413 -401 591 -202 712 -240 895 -284 41 -10 77 -17 79
-14 6 5 2 16 -269 804 -50 146 -107 312 -127 370 -69 204 -76 215 -254 399
-211 217 -337 348 -579 601 -129 135 -238 247 -242 248 -14 6 -9 32 6 32 7 0
58 14 112 31 55 16 137 41 184 54 47 13 146 42 220 63 145 43 232 69 430 127
262 76 296 88 346 116 57 32 136 109 171 167 86 139 84 354 -5 497 -57 93
-160 171 -270 205 -75 23 -193 25 -262 5z"/>
<path d="M6335 3365 c-386 -73 -685 -397 -725 -785 -45 -441 219 -836 647
-967 79 -24 104 -27 243 -27 168 -1 242 13 375 72 179 78 347 238 436 413 205
407 71 915 -306 1159 -73 48 -92 57 -190 97 -125 50 -328 67 -480 38z"/>
<path d="M2170 2103 c-309 -32 -483 -61 -650 -109 -410 -118 -768 -315 -1048
-579 -131 -124 -155 -180 -113 -264 24 -45 59 -71 100 -71 16 0 74 15 128 34
54 19 177 62 273 96 374 131 683 204 1045 247 208 24 639 24 860 0 486 -55
880 -154 1710 -432 302 -101 360 -120 510 -161 553 -153 908 -203 1368 -191
235 6 351 18 532 57 303 65 600 194 831 360 152 110 347 311 403 415 55 103
-6 215 -117 215 -43 0 -57 -5 -100 -39 -220 -174 -498 -305 -796 -375 -392
-93 -909 -95 -1386 -6 -326 61 -608 139 -1030 285 -428 147 -511 175 -650 218
-591 183 -910 253 -1333 292 -145 13 -444 18 -537 8z"/>
<path d="M2110 1074 c-19 -2 -93 -9 -165 -14 -210 -18 -524 -80 -717 -144
-158 -52 -361 -137 -390 -163 -21 -19 -24 -72 -5 -96 11 -16 110 -17 1542 -17
l1530 0 18 21 c23 29 22 64 -5 88 -23 23 -120 62 -272 110 -306 98 -633 167
-936 197 -145 14 -534 26 -600 18z"/>
</g>
</svg>
